<svg width="30" height="31" viewBox="0 0 30 31" fill="none" xmlns="http://www.w3.org/2000/svg">
<path d="M1.8391 25.9328H14.5784H23.3073L21.302 25.4609C21.2234 25.4609 20.9482 25.3901 20.4763 25.107C20.0045 24.8239 19.8865 24.2813 19.8865 24.0454L18.9429 17.7937C19.2968 17.5971 20.3112 17.0152 21.538 16.2603C23.0714 15.3166 24.8408 13.7831 25.9024 12.6036C26.964 11.424 26.6101 11.424 26.6101 10.3624C26.6101 9.51311 23.4646 8.67169 21.8918 8.35711C21.6166 7.37414 20.6415 5.43178 18.9429 5.52614C16.8197 5.64411 16.1119 8.23918 15.994 8.59305C15.876 8.9469 13.3989 7.64939 7.50105 12.9574C2.78275 17.2039 1.64251 23.5343 1.8391 25.9328Z" fill="url(#paint0_linear_276_529)"/>
<path d="M7.50094 16.85C5.14181 18.6429 3.33315 23.1017 2.54675 25.2249L6.08545 24.6351L9.2703 23.2197C9.2703 23.2197 10.5207 22.7007 13.1629 20.6246C16.4657 18.0296 15.4041 15.6704 15.0502 15.0806C14.7671 14.6088 13.674 14.4908 13.1629 14.4908C12.2585 14.5302 9.86009 15.057 7.50094 16.85Z" fill="url(#paint1_linear_276_529)"/>
<path fill-rule="evenodd" clip-rule="evenodd" d="M13.1464 13.7333H13.1629C13.4625 13.7333 13.9243 13.7666 14.3671 13.8717C14.5889 13.9244 14.8315 14.001 15.0547 14.116C15.2711 14.2274 15.5285 14.4054 15.6998 14.6909C15.6998 14.6909 15.6998 14.6909 15.6998 14.6909C15.9267 15.069 16.3574 15.9721 16.2313 17.1794C16.1026 18.4114 15.4086 19.8236 13.631 21.2203C12.2885 22.2751 11.2901 22.9418 10.6182 23.3487C10.2821 23.5522 10.0275 23.6908 9.85201 23.7806C9.76428 23.8255 9.69633 23.8581 9.64788 23.8806C9.62366 23.8918 9.6043 23.9005 9.58979 23.9069C9.58276 23.91 9.57687 23.9125 9.57211 23.9146L9.57799 23.912L9.27031 23.2197L8.97988 22.52L8.97944 22.5202C8.97966 22.5201 8.97988 22.52 9.27031 23.2197C9.56074 23.9194 9.56097 23.9193 9.56121 23.9192L9.56171 23.919L9.56279 23.9185L9.56529 23.9175L9.57165 23.9148L6.30507 25.3666L1.38257 26.187L1.83635 24.9618C2.23407 23.888 2.89607 22.2072 3.76387 20.5604C4.62028 18.9353 5.72526 17.248 7.04255 16.2469C9.52695 14.3587 12.0745 13.7799 13.13 13.734L13.1464 13.7333ZM13.1795 15.2485C12.4106 15.2873 10.1773 15.7675 7.95934 17.4532C6.91751 18.2449 5.9386 19.6836 5.1043 21.2668C4.5587 22.3022 4.09547 23.3589 3.73195 24.2594L5.86585 23.9037L8.97121 22.5236L8.977 22.5212L8.9802 22.5198C8.98529 22.5175 8.99539 22.513 9.01051 22.506C9.04076 22.492 9.09114 22.4679 9.16191 22.4317C9.30348 22.3593 9.52656 22.2384 9.83338 22.0526C10.4471 21.681 11.3951 21.0502 12.6949 20.0289C14.22 18.8306 14.6466 17.7657 14.7243 17.0219C14.8017 16.2816 14.5474 15.7242 14.4151 15.4951C14.4059 15.4885 14.3889 15.4773 14.3609 15.4629C14.2835 15.423 14.1678 15.3817 14.017 15.3459C13.7225 15.276 13.3919 15.2498 13.1795 15.2485Z" fill="black"/>
<path fill-rule="evenodd" clip-rule="evenodd" d="M20.3659 7.01868C19.9586 6.52327 19.5009 6.25385 18.9849 6.28252C18.2671 6.3224 17.7458 6.77355 17.3528 7.3821C17.002 7.92523 16.823 8.48719 16.7394 8.74971C16.7291 8.78207 16.7202 8.80988 16.7126 8.83255C16.6182 9.1157 16.4061 9.26779 16.2437 9.33776C16.1064 9.3969 15.9752 9.41218 15.9099 9.41849C15.8216 9.42703 15.6933 9.4298 15.5837 9.43217C15.5425 9.43307 15.5039 9.4339 15.4711 9.43496C15.1716 9.44467 14.7301 9.47612 14.1189 9.64698C12.8901 9.99051 10.8966 10.9206 8.00781 13.5205C3.92346 17.1964 2.93356 22.1529 2.92328 24.7033H14.2246C14.643 24.7033 14.9821 25.0425 14.9821 25.4609C14.9821 25.8793 14.643 26.2184 14.2246 26.2184H1.49492L1.4379 25.5228C1.2276 22.9571 2.05473 16.8398 6.99423 12.3943C10.0033 9.68618 12.1972 8.61098 13.711 8.18778C14.469 7.97584 15.0365 7.93323 15.4189 7.92071C15.5462 7.56804 15.7589 7.05735 16.08 6.56009C16.6012 5.75315 17.4954 4.84779 18.9008 4.7697C20.0833 4.704 20.9625 5.35858 21.5363 6.0565C21.9715 6.58596 22.2806 7.19465 22.4735 7.70557C23.2477 7.87671 24.2387 8.13561 25.0986 8.44686C25.609 8.63164 26.1119 8.84848 26.5006 9.09578C26.6942 9.21895 26.8923 9.36999 27.0493 9.55488C27.2055 9.73884 27.3676 10.013 27.3676 10.3623C27.3676 10.5685 27.3831 10.7235 27.3989 10.8826C27.4002 10.895 27.4014 10.9075 27.4027 10.92L27.4032 10.926C27.4191 11.0861 27.4414 11.3112 27.4026 11.5569C27.3196 12.0823 26.9908 12.5266 26.4654 13.1103C25.3606 14.3379 23.5364 15.9199 21.9349 16.9054C21.0497 17.4502 20.273 17.9063 19.7697 18.1956L20.6441 23.9885V24.0453C20.6441 24.0453 20.6442 24.0519 20.6456 24.0649C20.6471 24.0783 20.6497 24.0958 20.654 24.1164C20.6627 24.1584 20.6769 24.2059 20.6976 24.2527C20.7391 24.3468 20.7952 24.4148 20.8661 24.4574C21.0712 24.5805 21.2188 24.6484 21.3092 24.6833C21.3332 24.6925 21.3518 24.6989 21.3654 24.7033H22.9534C23.3718 24.7033 23.711 25.0425 23.711 25.4609C23.711 25.8793 23.3718 26.2184 22.9534 26.2184H21.302C21.1172 26.2184 20.9207 26.1574 20.764 26.0969C20.5791 26.0256 20.3532 25.9166 20.0865 25.7566C19.3406 25.3091 19.1497 24.5172 19.1306 24.1133L18.1153 17.3868L18.575 17.1314C18.9183 16.9407 19.923 16.3644 21.1409 15.615C22.6063 14.7132 24.3209 13.2283 25.3392 12.0968C25.8755 11.5009 25.9005 11.3554 25.906 11.3206C25.9109 11.2891 25.9122 11.244 25.8949 11.0691C25.8936 11.0562 25.8922 11.0428 25.8909 11.029C25.8774 10.8945 25.8595 10.7169 25.8541 10.4959C25.8736 10.5131 25.8866 10.5265 25.8944 10.5356C25.896 10.5376 25.8972 10.539 25.8979 10.54C25.8911 10.5302 25.8525 10.469 25.8525 10.3623C25.8525 10.4085 25.8531 10.453 25.8541 10.4959C25.8204 10.4661 25.7671 10.4249 25.6874 10.3742C25.4372 10.215 25.0554 10.0426 24.5828 9.87154C23.6476 9.53297 22.5076 9.25283 21.7432 9.09994L21.2876 9.0088L21.1623 8.56135C21.046 8.1461 20.7748 7.51615 20.3659 7.01868ZM15.7641 7.91037L15.7629 7.91049C15.7715 7.90919 15.7726 7.90954 15.7641 7.91037Z" fill="black"/>
<path d="M19.6669 9.58752C20.5138 9.58752 21.2003 8.90097 21.2003 8.05407C21.2003 7.20718 20.5138 6.52063 19.6669 6.52063C18.82 6.52063 18.1334 7.20718 18.1334 8.05407C18.1334 8.90097 18.82 9.58752 19.6669 9.58752Z" fill="black"/>
<path d="M20.3746 7.93614C20.5701 7.93614 20.7285 7.7777 20.7285 7.58227C20.7285 7.38683 20.5701 7.22839 20.3746 7.22839C20.1792 7.22839 20.0208 7.38683 20.0208 7.58227C20.0208 7.7777 20.1792 7.93614 20.3746 7.93614Z" fill="white"/>
<defs>
<linearGradient id="paint0_linear_276_529" x1="1.81824" y1="26.0474" x2="26.5892" y2="11.0668" gradientUnits="userSpaceOnUse">
<stop stop-color="#67C2F9"/>
<stop offset="1" stop-color="#5ECF77"/>
</linearGradient>
<linearGradient id="paint1_linear_276_529" x1="2.52587" y1="25.3396" x2="15.5012" y2="14.4875" gradientUnits="userSpaceOnUse">
<stop offset="0.120565" stop-color="#0057FF"/>
<stop offset="1" stop-color="#67C2F9"/>
</linearGradient>
</defs>
</svg>
