<svg width="30" height="30" viewBox="0 0 30 30" fill="none" xmlns="http://www.w3.org/2000/svg">
<path d="M3.76888 24.4923H7.90333V14.4524L2 10.0281V22.7403C2 23.7094 2.79981 24.4923 3.76888 24.4923Z" fill="#4285F4"/>
<path d="M22.0946 24.4923H26.2291C27.2172 24.4923 27.9979 23.6925 27.9979 22.7234V10.0281L22.0946 14.4524V24.4923Z" fill="#34A853"/>
<path d="M22.0946 6.77808V14.4524L28 10.0281V7.66252C28 5.46835 25.4991 4.2242 23.745 5.53605L22.0946 6.77808Z" fill="#FBBC04"/>
<path d="M7.90344 14.4525V6.7782L15.0001 12.1039L22.0947 6.7782V14.4525L15.0001 19.7613L7.90344 14.4525Z" fill="#EA4335"/>
<path d="M2 7.66287V10.0284L7.90545 14.4528V6.77843L6.25505 5.5364C4.50098 4.22667 2 5.48562 2 7.66287Z" fill="#C5221F"/>
</svg>
