<svg width="30" height="28" viewBox="0 0 30 28" fill="none" xmlns="http://www.w3.org/2000/svg">
<path fill-rule="evenodd" clip-rule="evenodd" d="M30 14.0361C30 12.0488 27.5122 10.1665 23.6963 8.99707C24.5776 5.10791 24.1846 2.01465 22.4609 1.02344C22.063 0.791504 21.5991 0.681641 21.0913 0.681641V2.04639C21.3721 2.04639 21.5991 2.10254 21.7896 2.20508C22.6221 2.68115 22.981 4.49756 22.7002 6.83398C22.6318 7.40771 22.522 8.01318 22.3877 8.63086C21.189 8.33789 19.8804 8.11084 18.5059 7.96436C17.6807 6.83398 16.8237 5.80615 15.9619 4.90771C17.9541 3.05225 19.8242 2.03906 21.0962 2.03906V0.674316C19.4141 0.674316 17.2144 1.87305 14.9878 3.95313C12.7612 1.88525 10.5615 0.69873 8.87939 0.69873V2.06348C10.144 2.06348 12.0215 3.07178 14.0161 4.9126C13.1592 5.81104 12.3047 6.83154 11.4917 7.96436C10.1099 8.11084 8.80127 8.33789 7.60254 8.63574C7.46094 8.02539 7.3584 7.43213 7.28516 6.86328C6.99707 4.52686 7.35352 2.71045 8.17871 2.22705C8.36182 2.11719 8.60107 2.06836 8.88184 2.06836V0.706055C8.36914 0.706055 7.90283 0.815918 7.5 1.04785C5.78125 2.03906 5.39551 5.12744 6.28418 9.00439C2.47559 10.1763 0 12.0537 0 14.0361C0 16.0234 2.48779 17.9058 6.30371 19.0752C5.42236 22.9644 5.81543 26.0576 7.53906 27.0488C7.93701 27.2808 8.40088 27.3906 8.91602 27.3906C10.5981 27.3906 12.7979 26.1919 15.0244 24.1118C17.251 26.1797 19.4507 27.3662 21.1328 27.3662C21.6455 27.3662 22.1118 27.2563 22.5146 27.0244C24.2334 26.0332 24.6191 22.9448 23.7305 19.0679C27.5244 17.9009 30 16.0161 30 14.0361ZM17.7881 14.0361C17.7881 12.4932 16.5381 11.2407 14.9927 11.2407C13.4497 11.2407 12.1973 12.4907 12.1973 14.0361C12.1973 15.5815 13.4473 16.8315 14.9927 16.8315C16.5381 16.8291 17.7881 15.5791 17.7881 14.0361ZM22.0386 9.95654C21.8115 10.7451 21.5308 11.5581 21.2134 12.3711C20.9619 11.8828 20.7007 11.3921 20.4126 10.9038C20.1318 10.4155 19.8315 9.93701 19.5312 9.47314C20.4004 9.60254 21.2378 9.76123 22.0386 9.95654ZM19.2383 16.4702C18.7622 17.2954 18.2715 18.0791 17.7637 18.8066C16.853 18.8872 15.9302 18.9287 15 18.9287C14.0771 18.9287 13.1543 18.8848 12.2485 18.8115C11.7407 18.084 11.2451 17.3076 10.769 16.4873C10.3052 15.6865 9.88281 14.8735 9.49707 14.0532C9.87549 13.2329 10.3052 12.415 10.7617 11.6143C11.2378 10.7891 11.7285 10.0054 12.2363 9.27783C13.147 9.19727 14.0698 9.15576 15 9.15576C15.9229 9.15576 16.8457 9.19971 17.7515 9.27295C18.2593 10.0005 18.7549 10.7769 19.231 11.5972C19.6948 12.3979 20.1172 13.2109 20.5029 14.0312C20.1172 14.8491 19.6973 15.667 19.2383 16.4702ZM21.2134 15.6743C21.543 16.4946 21.8237 17.3125 22.0581 18.1084C21.2573 18.3037 20.4126 18.4697 19.5386 18.5967C19.8389 18.1255 20.1367 17.6421 20.4199 17.1465C20.6982 16.6582 20.9619 16.1626 21.2134 15.6743ZM15.0122 22.1978C14.4434 21.6118 13.8745 20.9575 13.313 20.2422C13.8623 20.2666 14.4263 20.2861 14.9951 20.2861C15.5688 20.2861 16.1377 20.2739 16.6943 20.2422C16.1426 20.9575 15.5737 21.6118 15.0122 22.1978ZM10.4639 18.5967C9.59473 18.4673 8.75732 18.3086 7.95654 18.1133C8.18359 17.3247 8.46436 16.5117 8.78174 15.6987C9.0332 16.187 9.29443 16.6777 9.58252 17.166C9.87061 17.6567 10.1636 18.1328 10.4639 18.5967ZM14.9805 5.87207C15.5493 6.45801 16.1182 7.1123 16.6797 7.82764C16.1304 7.80322 15.5664 7.78369 14.9976 7.78369C14.4238 7.78369 13.855 7.7959 13.2983 7.82764C13.8501 7.1123 14.4189 6.45801 14.9805 5.87207ZM10.4565 9.47314C10.1563 9.94434 9.8584 10.4277 9.5752 10.9233C9.29443 11.4116 9.03076 11.9023 8.7793 12.3906C8.44971 11.5703 8.16895 10.7524 7.93457 9.95654C8.73779 9.76611 9.58252 9.60254 10.4565 9.47314ZM4.92187 17.1294C2.75635 16.2065 1.35742 14.9956 1.35742 14.0361C1.35742 13.0767 2.75879 11.8584 4.92187 10.9429C5.44678 10.7158 6.02295 10.5156 6.61621 10.3252C6.96533 11.5239 7.42432 12.7715 7.99316 14.0483C7.43164 15.3203 6.97754 16.5605 6.63574 17.7544C6.03027 17.564 5.4541 17.3564 4.92187 17.1294ZM8.21289 25.8672C7.38037 25.3911 7.02148 23.5747 7.30225 21.2383C7.37061 20.6646 7.48047 20.0591 7.61475 19.4414C8.81348 19.7344 10.1221 19.9614 11.4966 20.1079C12.3218 21.2383 13.1787 22.2661 14.0405 23.1646C12.0459 25.0176 10.1758 26.0332 8.90381 26.0332C8.62793 26.0259 8.396 25.9722 8.21289 25.8672ZM22.7173 21.209C23.0054 23.5454 22.6489 25.3618 21.8237 25.8452C21.6406 25.9551 21.4014 26.0039 21.1206 26.0039C19.856 26.0039 17.9785 24.9956 15.9839 23.1548C16.8408 22.2563 17.6953 21.2358 18.5083 20.103C19.8901 19.9565 21.1987 19.7295 22.3975 19.4292C22.5391 20.0469 22.6489 20.6401 22.7173 21.209ZM25.0708 17.1294C24.5459 17.3564 23.9697 17.5566 23.3765 17.7471C23.0273 16.5483 22.5684 15.3008 21.9995 14.0239C22.561 12.752 23.0151 11.5117 23.3569 10.3179C23.9624 10.5083 24.5361 10.7158 25.0757 10.9404C27.2412 11.8633 28.6401 13.0742 28.6401 14.0337C28.6353 14.9956 27.2363 16.2114 25.0708 17.1294Z" fill="#00D8FF"/>
</svg>
