<svg width="30" height="31" viewBox="0 0 30 31" fill="none" xmlns="http://www.w3.org/2000/svg">
<path fill-rule="evenodd" clip-rule="evenodd" d="M0 0.674316H30V30.6743H0V0.674316Z" fill="#007ACC"/>
<path fill-rule="evenodd" clip-rule="evenodd" d="M6.57715 15.7256V16.9487H10.4761V28.0498H13.2446V16.9487H17.1436V15.7476C17.1436 15.0737 17.1436 14.5244 17.1143 14.5098C17.1143 14.4878 14.7363 14.4805 11.8481 14.4805L6.59912 14.5024V15.7329L6.57715 15.7256ZM24.104 14.4731C24.8682 14.6538 25.4541 14.998 25.979 15.5449C26.2573 15.8452 26.6699 16.3701 26.6992 16.5044C26.6992 16.5483 25.4028 17.4272 24.6143 17.9155C24.585 17.9375 24.4653 17.8105 24.3433 17.6152C23.9526 17.061 23.5547 16.8193 22.9321 16.7754C22.0313 16.7144 21.4331 17.188 21.4331 17.9741C21.4331 18.2134 21.477 18.3501 21.5674 18.543C21.77 18.9556 22.146 19.2021 23.3081 19.7124C25.4541 20.6353 26.3843 21.2432 26.9458 22.1123C27.583 23.0864 27.7246 24.6172 27.2974 25.7646C26.8164 27.0171 25.647 27.8643 23.9746 28.1426C23.4497 28.2329 22.2485 28.2183 21.687 28.1206C20.4883 27.896 19.3384 27.2954 18.6353 26.5239C18.3569 26.2236 17.8247 25.4204 17.8564 25.3691L18.1421 25.1885L19.2676 24.5366L20.1147 24.041L20.3101 24.3047C20.5566 24.6953 21.1133 25.2202 21.4355 25.4009C22.4097 25.9038 23.7158 25.8354 24.3604 25.252C24.6387 24.998 24.7583 24.7271 24.7583 24.3511C24.7583 24.0068 24.7046 23.8481 24.5337 23.5869C24.2944 23.2573 23.8135 22.9863 22.4634 22.3882C20.9106 21.729 20.2515 21.3091 19.6362 20.6621C19.2847 20.2715 18.9624 19.6636 18.811 19.1631C18.6987 18.7285 18.6621 17.6641 18.7671 17.2344C19.0894 15.7354 20.2222 14.6855 21.8433 14.3853C22.3682 14.2803 23.606 14.3242 24.1235 14.4609L24.104 14.4731Z" fill="white"/>
</svg>
