<svg width="30" height="35" viewBox="0 0 30 35" fill="none" xmlns="http://www.w3.org/2000/svg">
<g clip-path="url(#clip0_268_694)">
<path fill-rule="evenodd" clip-rule="evenodd" d="M27.1873 31.1426L14.9999 34.4242L2.81241 31.1426L0 0.674316H30L27.1873 31.1426Z" fill="#2062AF"/>
<path fill-rule="evenodd" clip-rule="evenodd" d="M14.9998 3.14221V31.8069L15.0274 31.8144L24.89 29.1587L27.1666 3.14221H14.9998Z" fill="#3C9CD7"/>
<path fill-rule="evenodd" clip-rule="evenodd" d="M14.989 10.7605L6.26599 14.3933L6.55526 17.9901L14.989 14.3842L23.9601 10.5486L24.3321 6.86926L14.989 10.7605Z" fill="white"/>
<mask id="mask0_268_694" style="mask-type:luminance" maskUnits="userSpaceOnUse" x="6" y="10" width="10" height="9">
<path fill-rule="evenodd" clip-rule="evenodd" d="M6.25085 10.7454H15.0042V18.0054H6.25085V10.7454Z" fill="url(#paint0_linear_268_694)"/>
</mask>
<g mask="url(#mask0_268_694)">
<path fill-rule="evenodd" clip-rule="evenodd" d="M6.26599 14.3933L6.55526 17.9901L14.9889 14.3842V10.7605L6.26599 14.3933Z" fill="url(#paint1_linear_268_694)"/>
</g>
<mask id="mask1_268_694" style="mask-type:luminance" maskUnits="userSpaceOnUse" x="14" y="6" width="11" height="9">
<path fill-rule="evenodd" clip-rule="evenodd" d="M14.9739 6.85425H24.3474V14.3995H14.9739V6.85425Z" fill="url(#paint2_linear_268_694)"/>
</mask>
<g mask="url(#mask1_268_694)">
<path fill-rule="evenodd" clip-rule="evenodd" d="M24.3321 6.86938L14.989 10.7605V14.3842L23.9601 10.5486L24.3321 6.86938Z" fill="url(#paint3_linear_268_694)"/>
</g>
<path fill-rule="evenodd" clip-rule="evenodd" d="M6.27942 14.3933L6.56879 17.9901L19.5091 18.0313L19.2196 22.827L14.9616 24.0258L10.8683 22.9923L10.6202 20.0156H6.81685L7.31298 25.7621L15.0029 28.0359L22.6511 25.8033L23.6433 14.3933H6.27942Z" fill="url(#paint4_linear_268_694)"/>
<path fill-rule="evenodd" clip-rule="evenodd" d="M14.989 14.3933H6.26611L6.55538 17.9901L14.989 18.017V14.3933ZM14.989 24.0143L14.9477 24.0258L10.855 22.9923L10.6069 20.0156H6.80365L7.29967 25.7621L14.989 28.0359V24.0143Z" fill="black" fill-opacity="0.05098"/>
<path fill-rule="evenodd" clip-rule="evenodd" d="M5.48059 6.86938H24.3322L23.9602 10.5487H5.9353L5.48059 6.86938Z" fill="url(#paint5_linear_268_694)"/>
<path fill-rule="evenodd" clip-rule="evenodd" d="M14.9891 6.86938H5.48059L5.9353 10.5487H14.9891V6.86938Z" fill="black" fill-opacity="0.05098"/>
</g>
<defs>
<linearGradient id="paint0_linear_268_694" x1="10.6275" y1="10.7605" x2="10.6275" y2="17.9902" gradientUnits="userSpaceOnUse">
<stop stop-color="white" stop-opacity="0"/>
<stop offset="0.388" stop-color="white"/>
<stop offset="1" stop-color="white" stop-opacity="0.831"/>
</linearGradient>
<linearGradient id="paint1_linear_268_694" x1="10.6274" y1="10.7605" x2="10.6274" y2="17.9901" gradientUnits="userSpaceOnUse">
<stop stop-color="#D1D3D4"/>
<stop offset="0.388" stop-color="#D1D3D4"/>
<stop offset="1" stop-color="#D1D3D4"/>
</linearGradient>
<linearGradient id="paint2_linear_268_694" x1="19.6606" y1="6.86942" x2="19.6606" y2="14.3843" gradientUnits="userSpaceOnUse">
<stop stop-color="white" stop-opacity="0"/>
<stop offset="0.388" stop-color="white"/>
<stop offset="1" stop-color="white" stop-opacity="0.831"/>
</linearGradient>
<linearGradient id="paint3_linear_268_694" x1="19.6606" y1="6.86936" x2="19.6606" y2="14.3842" gradientUnits="userSpaceOnUse">
<stop stop-color="#D1D3D4"/>
<stop offset="0.388" stop-color="#D1D3D4"/>
<stop offset="1" stop-color="#D1D3D4"/>
</linearGradient>
<linearGradient id="paint4_linear_268_694" x1="6.27945" y1="21.2146" x2="23.6433" y2="21.2146" gradientUnits="userSpaceOnUse">
<stop stop-color="#E8E7E5"/>
<stop offset="1" stop-color="white"/>
</linearGradient>
<linearGradient id="paint5_linear_268_694" x1="5.48056" y1="8.70904" x2="24.3322" y2="8.70904" gradientUnits="userSpaceOnUse">
<stop stop-color="#E8E7E5"/>
<stop offset="1" stop-color="white"/>
</linearGradient>
<clipPath id="clip0_268_694">
<rect width="30" height="33.7499" fill="white" transform="translate(0 0.674316)"/>
</clipPath>
</defs>
</svg>
