<svg width="30" height="31" viewBox="0 0 30 31" fill="none" xmlns="http://www.w3.org/2000/svg">
<g clip-path="url(#clip0_268_519)">
<path d="M6.11848 24.5558L0.987929 19.4252C0.377036 18.7994 0 17.9153 0 17.055C0 16.6559 0.224909 16.0313 0.394933 15.674L5.13055 5.80481L6.11848 24.5558Z" fill="#01579B"/>
<path d="M23.6841 6.7928L18.5535 1.66225C18.1055 1.21123 17.1725 0.674316 16.3826 0.674316C15.7037 0.674316 15.0373 0.810932 14.6072 1.06925L5.13477 5.80487L23.6841 6.7928Z" fill="#40C4FF"/>
<path d="M12.2363 30.6743H24.6714V25.3457L15.3946 22.3837L6.90771 25.3457L12.2363 30.6743Z" fill="#40C4FF"/>
<path d="M5.13049 21.793C5.13049 23.3763 5.32915 23.7647 6.11663 24.5564L6.9059 25.3462H24.6713L15.9882 15.4777L5.13049 5.80481V21.793Z" fill="#29B6F6"/>
<path d="M20.9219 5.80481H5.13049L24.6713 25.3433H29.9999V13.1069L23.684 6.79035C22.7963 5.90145 22.0088 5.80481 20.9219 5.80481Z" fill="#01579B"/>
<path opacity="0.2" d="M6.31658 24.7521C5.52731 23.9604 5.33104 23.1795 5.33104 21.793V6.00287L5.13477 5.80481V21.793C5.13477 23.1801 5.13477 23.5643 6.31658 24.7526L6.90779 25.3439L6.31658 24.7521Z" fill="white"/>
<path opacity="0.2" d="M29.8037 12.9106V25.147H24.4751L24.6714 25.3457H30V13.1069L29.8037 12.9106Z" fill="#263238"/>
<path opacity="0.2" d="M23.6841 6.79274C22.7063 5.81316 21.9057 5.80481 20.7257 5.80481H5.13477L5.33104 6.00108H20.7257C21.3145 6.00108 22.8012 5.90205 23.6853 6.79095L23.6841 6.79274Z" fill="white"/>
<path opacity="0.2" d="M29.8037 12.9107L23.6841 6.7928L18.5535 1.66225C18.1055 1.21123 17.1724 0.674316 16.3826 0.674316C15.7037 0.674316 15.0373 0.810932 14.6072 1.06925L5.13473 5.80487L0.396723 15.674C0.227295 16.0338 0 16.6578 0 17.0551C0 17.9171 0.379422 18.7971 0.985543 19.4235L5.71698 24.1197C5.84288 24.2724 5.97691 24.4182 6.11848 24.5564L6.31475 24.7527L6.90536 25.3439L12.0359 30.4745L12.2322 30.6707H24.6648V25.3433H29.9934V13.107L29.8037 12.9107Z" fill="url(#paint0_radial_268_519)"/>
</g>
<defs>
<radialGradient id="paint0_radial_268_519" cx="0" cy="0" r="1" gradientUnits="userSpaceOnUse" gradientTransform="translate(14.9991 15.6728) scale(14.9979)">
<stop stop-color="white" stop-opacity="0.1"/>
<stop offset="1" stop-color="white" stop-opacity="0"/>
</radialGradient>
<clipPath id="clip0_268_519">
<rect width="30" height="30" fill="white" transform="translate(0 0.674316)"/>
</clipPath>
</defs>
</svg>
