<svg width="30" height="22" viewBox="0 0 30 22" fill="none" xmlns="http://www.w3.org/2000/svg">
<g clip-path="url(#clip0_268_517)">
<path d="M29.707 8.28809C29.624 8.21973 28.8721 7.64844 27.2583 7.64844C26.8408 7.64844 26.4087 7.68994 25.9912 7.76074C25.686 5.63184 23.9185 4.60156 23.8477 4.54785L23.4155 4.29639L23.1372 4.69922C22.7905 5.24121 22.5244 5.854 22.373 6.479C22.0801 7.68994 22.2607 8.83008 22.8735 9.8042C22.1362 10.2217 20.9399 10.3193 20.6885 10.334H0.930172C0.415035 10.334 -0.00244536 10.7515 -0.00244536 11.2666C-0.0293008 12.9927 0.261226 14.7163 0.859371 16.3447C1.54052 18.1245 2.55615 19.4478 3.86474 20.2534C5.33935 21.1567 7.74658 21.6719 10.459 21.6719C11.6821 21.6719 12.9077 21.5596 14.1186 21.3374C15.8032 21.0322 17.417 20.4463 18.9038 19.5991C20.1294 18.8887 21.228 17.9854 22.1606 16.9282C23.7329 15.1606 24.6655 13.1855 25.3467 11.4326C25.4443 11.4326 25.5273 11.4326 25.625 11.4326C27.3364 11.4326 28.3936 10.7515 28.977 10.1655C29.3677 9.8042 29.6582 9.35742 29.8682 8.85693L29.9927 8.4956L29.707 8.28809ZM17.478 9.7627H20.1221C20.2466 9.7627 20.3589 9.66504 20.3589 9.52588V7.16016C20.3589 7.03564 20.2612 6.92334 20.1221 6.92334H17.478C17.3535 6.92334 17.2412 7.021 17.2412 7.16016V9.52588C17.2559 9.66504 17.3535 9.7627 17.478 9.7627ZM13.7915 2.98779H16.4355C16.5601 2.98779 16.6724 2.89014 16.6724 2.75098V0.385254C16.6724 0.260742 16.5601 0.148438 16.4355 0.148438H13.7915C13.667 0.148438 13.5547 0.246094 13.5547 0.385254V2.75098C13.5547 2.87549 13.6645 2.98779 13.7915 2.98779ZM13.7915 6.38135H16.4355C16.5601 6.38135 16.6724 6.26904 16.6724 6.14453V3.77881C16.6724 3.6543 16.5601 3.54199 16.4355 3.54199H13.7915C13.667 3.54199 13.5547 3.63965 13.5547 3.77881V6.14453C13.5547 6.27148 13.6645 6.38135 13.7915 6.38135ZM10.1318 6.38135H12.7759C12.9004 6.38135 13.0127 6.26904 13.0127 6.14453V3.77881C13.0127 3.6543 12.915 3.54199 12.7759 3.54199H10.1318C10.0073 3.54199 9.89501 3.63965 9.89501 3.77881V6.14453C9.89501 6.27148 9.99267 6.38135 10.1318 6.38135ZM6.41601 6.38135H9.06005C9.18457 6.38135 9.29687 6.26904 9.29687 6.14453V3.77881C9.29687 3.6543 9.19921 3.54199 9.06005 3.54199H6.41601C6.2915 3.54199 6.17919 3.63965 6.17919 3.77881V6.14453C6.19384 6.27148 6.2915 6.38135 6.41601 6.38135ZM13.7915 9.7627H16.4355C16.5601 9.7627 16.6724 9.66504 16.6724 9.52588V7.16016C16.6724 7.03564 16.5747 6.92334 16.4355 6.92334H13.7915C13.667 6.92334 13.5547 7.021 13.5547 7.16016V9.52588C13.5547 9.66504 13.6645 9.7627 13.7915 9.7627ZM10.1318 9.7627H12.7759C12.9004 9.7627 13.0127 9.66504 13.0127 9.52588V7.16016C13.0127 7.03564 12.915 6.92334 12.7759 6.92334H10.1318C10.0073 6.92334 9.89501 7.021 9.89501 7.16016V9.52588C9.89501 9.66504 9.99267 9.7627 10.1318 9.7627ZM6.41601 9.7627H9.06005C9.18457 9.7627 9.29687 9.66504 9.29687 9.52588V7.16016C9.29687 7.03564 9.19921 6.92334 9.06005 6.92334H6.41601C6.2915 6.92334 6.17919 7.021 6.17919 7.16016V9.52588C6.19384 9.66504 6.2915 9.7627 6.41601 9.7627ZM2.77099 9.7627H5.41503C5.53955 9.7627 5.65185 9.66504 5.65185 9.52588V7.16016C5.65185 7.03564 5.55419 6.92334 5.41503 6.92334H2.77099C2.64648 6.92334 2.53418 7.021 2.53418 7.16016V9.52588C2.54882 9.66504 2.64648 9.7627 2.77099 9.7627Z" fill="#0091E2"/>
</g>
<defs>
<clipPath id="clip0_268_517">
<rect width="30" height="21.5259" fill="white" transform="translate(0 0.148438)"/>
</clipPath>
</defs>
</svg>
