<svg width="30" height="30" viewBox="0 0 30 30" fill="none" xmlns="http://www.w3.org/2000/svg">
<path d="M10.5 30C13.2588 30 15.5 27.7612 15.5 25V20H10.5C7.74121 20 5.5 22.2388 5.5 25C5.5 27.7612 7.74121 30 10.5 30Z" fill="#0ACF83"/>
<path d="M5.5 15C5.5 12.2412 7.74121 10 10.5 10H15.5V20H10.5C7.74121 20 5.5 17.7612 5.5 15Z" fill="#A259FF"/>
<path d="M5.5 5C5.5 2.24121 7.74121 0 10.5 0H15.5V10H10.5C7.74121 10 5.5 7.76123 5.5 5Z" fill="#F24E1E"/>
<path d="M15.5 0H20.5C23.2588 0 25.5 2.24121 25.5 5C25.5 7.76123 23.2612 10 20.5 10H15.5V0Z" fill="#FF7262"/>
<path d="M25.5 15C25.5 17.7612 23.2612 20 20.5 20C17.7388 20 15.5 17.7612 15.5 15C15.5 12.2412 17.7388 10 20.5 10C23.2612 10 25.5 12.2412 25.5 15Z" fill="#1ABCFE"/>
</svg>
