<svg width="30" height="31" viewBox="0 0 30 31" fill="none" xmlns="http://www.w3.org/2000/svg">
<g clip-path="url(#clip0_268_692)">
<path d="M29.4336 14.3364L16.3354 1.24072C15.5811 0.486328 14.3579 0.486328 13.6035 1.24072L10.8838 3.96045L14.3335 7.41016C15.1367 7.13916 16.0547 7.31982 16.6943 7.95947C17.3364 8.60156 17.5171 9.5293 17.2388 10.335L20.564 13.6602C21.3696 13.3818 22.2974 13.5625 22.9395 14.2046C23.8379 15.103 23.8379 16.5581 22.9395 17.4541C22.041 18.3525 20.5859 18.3525 19.6875 17.4541C19.0112 16.7778 18.8452 15.7866 19.187 14.9541L16.0864 11.8535V20.0151C16.3062 20.1226 16.5112 20.269 16.6943 20.4497C17.5928 21.3481 17.5928 22.8032 16.6943 23.7017C15.7959 24.6001 14.3408 24.6001 13.4448 23.7017C12.5464 22.8032 12.5464 21.3481 13.4448 20.4497C13.667 20.2275 13.9233 20.0615 14.1968 19.9492V11.7119C13.9233 11.5996 13.667 11.4336 13.4448 11.2114C12.7637 10.5327 12.6001 9.53418 12.9492 8.69922L9.5459 5.2959L0.566406 14.2778C-0.187988 15.0322 -0.187988 16.2554 0.566406 17.0098L13.6646 30.1079C14.4189 30.8623 15.6421 30.8623 16.3965 30.1079L29.4336 17.0732C30.188 16.3164 30.188 15.0933 29.4336 14.3364Z" fill="#F05133"/>
</g>
<defs>
<clipPath id="clip0_268_692">
<rect width="30" height="29.9976" fill="white" transform="translate(0 0.674316)"/>
</clipPath>
</defs>
</svg>
