<svg width="30" height="37" viewBox="0 0 30 37" fill="none" xmlns="http://www.w3.org/2000/svg">
<g clip-path="url(#clip0_268_695)">
<path d="M28.0871 5.44494C24.7394 0.653742 18.1262 -0.766307 13.3468 2.27917L4.94969 7.63076C3.81371 8.34286 2.8389 9.28427 2.08764 10.3947C1.33637 11.5052 0.82521 12.7603 0.586856 14.0797C0.480382 14.6743 0.426384 15.2771 0.425487 15.8811C0.430786 17.5235 0.833443 19.1401 1.59908 20.5931C0.88105 21.6837 0.391029 22.9082 0.158494 24.1931C-0.0795499 25.5392 -0.0464571 26.9192 0.255832 28.2523C0.558122 29.5854 1.12352 30.8447 1.91889 31.9564C5.26656 36.7476 11.8944 38.1677 16.6592 35.1222L25.0475 29.7706C26.1828 29.0576 27.1564 28.1151 27.9057 27.0034C28.6551 25.8918 29.1636 24.6357 29.3986 23.3158C29.5065 22.7224 29.5605 22.1205 29.56 21.5173C29.5579 19.8782 29.1603 18.2638 28.401 16.8112C29.1187 15.7215 29.6087 14.498 29.8416 13.2141C29.9457 12.6202 29.9987 12.0185 30.0001 11.4156C30.0006 9.27641 29.3317 7.19069 28.0871 5.45081V5.44494Z" fill="#FF3E00"/>
<path d="M12.5252 32.4083C11.9771 32.55 11.4132 32.6219 10.847 32.6225C9.76997 32.6227 8.70895 32.3618 7.7549 31.862C6.80086 31.3623 5.98224 30.6386 5.36924 29.753C4.62055 28.7064 4.21837 27.4516 4.21912 26.1648C4.21953 25.8028 4.25094 25.4416 4.313 25.0851C4.36284 24.8197 4.43048 24.558 4.51545 24.3017L4.67389 23.8205L5.10225 24.1462C6.09668 24.8759 7.20784 25.4315 8.38831 25.7892L8.69931 25.8831L8.66997 26.1941C8.66997 26.2469 8.66997 26.3027 8.66997 26.3555C8.66937 26.7446 8.79042 27.1241 9.01618 27.4411C9.19863 27.7109 9.44419 27.9321 9.73154 28.0855C10.0189 28.2389 10.3394 28.3198 10.6651 28.3212C10.8354 28.3218 11.0051 28.3001 11.1697 28.2567C11.3524 28.2083 11.5266 28.1321 11.6861 28.0308L20.0744 22.6528C20.326 22.4934 20.5331 22.2729 20.6763 22.0117C20.8194 21.7505 20.894 21.4572 20.893 21.1594C20.8906 20.7703 20.7664 20.3917 20.5379 20.0767C20.3527 19.8103 20.1057 19.5926 19.818 19.4424C19.5304 19.2922 19.2106 19.2139 18.8861 19.2142C18.7158 19.2136 18.5461 19.2353 18.3815 19.2787C18.1993 19.3261 18.026 19.4024 17.868 19.5046L14.67 21.5467C14.1428 21.8807 13.5681 22.133 12.9653 22.2948C12.4171 22.4362 11.8533 22.5081 11.2871 22.509C10.2105 22.5089 9.14988 22.2481 8.19598 21.7489C7.24207 21.2497 6.4232 20.527 5.80934 19.6425C5.06154 18.5954 4.65945 17.3409 4.65922 16.0543C4.65962 15.6923 4.69103 15.3311 4.7531 14.9745C4.89655 14.1815 5.20326 13.4269 5.65379 12.7587C6.10432 12.0905 6.68882 11.5232 7.37022 11.0929L15.7673 5.74423C16.2941 5.40892 16.8689 5.15566 17.4719 4.99313C18.0203 4.8526 18.5841 4.78163 19.1502 4.78188C20.2295 4.77911 21.2933 5.03822 22.2505 5.53698C23.2076 6.03573 24.0295 6.75925 24.6455 7.64545C25.3887 8.6951 25.7856 9.95056 25.781 11.2366C25.7806 11.5995 25.7492 11.9617 25.6871 12.3193C25.6372 12.5847 25.5696 12.8464 25.4846 13.1027L25.3262 13.5838L24.8978 13.2699C23.9041 12.539 22.7927 11.9833 21.6118 11.6269L21.3008 11.53L21.3301 11.219C21.3301 11.1662 21.3301 11.1105 21.3301 11.0577C21.3302 10.6678 21.2092 10.2874 20.9839 9.96917C20.799 9.70312 20.5524 9.48573 20.2653 9.33553C19.9782 9.18534 19.659 9.10679 19.335 9.10658C19.1661 9.11031 18.9985 9.13595 18.8362 9.18286C18.6529 9.2294 18.4785 9.30572 18.3198 9.40878L9.92278 14.7574C9.71724 14.8879 9.54097 15.0595 9.40512 15.2615C9.26928 15.4635 9.1768 15.6915 9.13354 15.931C9.11284 16.0336 9.10008 16.1375 9.0954 16.242C9.09521 16.6302 9.21625 17.0087 9.44161 17.3247C9.62639 17.5909 9.87289 17.8084 10.16 17.9586C10.4472 18.1089 10.7664 18.1873 11.0905 18.1873C11.2608 18.1879 11.4305 18.1662 11.5952 18.1227C11.7783 18.0756 11.9527 17.9993 12.1115 17.8968L15.3154 15.843C15.8423 15.5084 16.4172 15.2562 17.0201 15.0948C17.5683 14.9533 18.1322 14.8814 18.6983 14.8807C19.7754 14.8806 20.8365 15.1413 21.7909 15.6405C22.7453 16.1396 23.5647 16.8625 24.179 17.7472C24.9268 18.7942 25.3289 20.0487 25.3291 21.3354C25.3299 21.7014 25.2975 22.0667 25.2323 22.4269C25.0896 23.2201 24.7831 23.975 24.3325 24.6433C23.8819 25.3116 23.2971 25.8787 22.6152 26.3085L14.2328 31.6572C13.705 31.9928 13.1292 32.246 12.5252 32.4083Z" fill="white"/>
</g>
<defs>
<clipPath id="clip0_268_695">
<rect width="30" height="36.0528" fill="white" transform="translate(0 0.674316)"/>
</clipPath>
</defs>
</svg>
