<svg width="30" height="19" viewBox="0 0 30 19" fill="none" xmlns="http://www.w3.org/2000/svg">
<path fill-rule="evenodd" clip-rule="evenodd" d="M15 0.674316C11.001 0.674316 8.50098 2.66243 7.5 6.63867C9.00065 4.65137 10.7503 3.90592 12.749 4.40234C13.8916 4.68555 14.7021 5.5083 15.6104 6.41895C17.0752 7.90332 18.7842 9.61963 22.5 9.61963C26.499 9.61963 28.999 7.63151 30 3.65527C28.501 5.64421 26.7513 6.38965 24.751 5.8916C23.6084 5.6084 22.7979 4.78564 21.8896 3.875C20.4199 2.3833 18.7183 0.674316 15 0.674316ZM7.5 9.61963C3.50098 9.61963 1.00098 11.6077 0 15.584C1.50228 13.5967 3.25195 12.8512 5.24902 13.3477C6.3916 13.6309 7.20215 14.4536 8.11035 15.3667C9.5752 16.8486 11.2842 18.5674 15 18.5674C18.999 18.5674 21.499 16.5793 22.5 12.603C21.001 14.5903 19.2513 15.3341 17.251 14.8345C16.1084 14.5513 15.2979 13.7285 14.3896 12.8179C12.9248 11.3335 11.2158 9.61475 7.5 9.61475V9.61963Z" fill="#06B6D4"/>
</svg>
