<svg width="21" height="30" viewBox="0 0 21 30" fill="none" xmlns="http://www.w3.org/2000/svg">
<path d="M5.5 30C8.25879 30 10.5 27.7612 10.5 25V20H5.5C2.74121 20 0.5 22.2388 0.5 25C0.5 27.7612 2.74121 30 5.5 30Z" fill="#0ACF83"/>
<path d="M0.5 15C0.5 12.2412 2.74121 10 5.5 10H10.5V20H5.5C2.74121 20 0.5 17.7612 0.5 15Z" fill="#A259FF"/>
<path d="M0.5 5C0.5 2.24121 2.74121 0 5.5 0H10.5V10H5.5C2.74121 10 0.5 7.76123 0.5 5Z" fill="#F24E1E"/>
<path d="M10.5 0H15.5C18.2588 0 20.5 2.24121 20.5 5C20.5 7.76123 18.2612 10 15.5 10H10.5V0Z" fill="#FF7262"/>
<path d="M20.5 15C20.5 17.7612 18.2612 20 15.5 20C12.7388 20 10.5 17.7612 10.5 15C10.5 12.2412 12.7388 10 15.5 10C18.2612 10 20.5 12.2412 20.5 15Z" fill="#1ABCFE"/>
</svg>
