<svg width="26" height="20" viewBox="0 0 26 20" fill="none" xmlns="http://www.w3.org/2000/svg">
<path d="M1.76888 19.4923H5.90333V9.4524L0 5.02808V17.7403C0 18.7094 0.799806 19.4923 1.76888 19.4923Z" fill="#4285F4"/>
<path d="M20.0946 19.4923H24.2291C25.2172 19.4923 25.9979 18.6925 25.9979 17.7234V5.02808L20.0946 9.4524V19.4923Z" fill="#34A853"/>
<path d="M20.0946 1.77808V9.45241L26 5.02809V2.66252C26 0.468345 23.4991 -0.775797 21.745 0.536054L20.0946 1.77808Z" fill="#FBBC04"/>
<path d="M5.90344 9.45253V1.7782L13.0001 7.10389L20.0947 1.7782V9.45253L13.0001 14.7613L5.90344 9.45253Z" fill="#EA4335"/>
<path d="M0 2.66287V5.02843L5.90545 9.45276V1.77843L4.25505 0.536402C2.50098 -0.773333 0 0.485621 0 2.66287Z" fill="#C5221F"/>
</svg>
