<svg width="24" height="24" viewBox="0 0 24 24" fill="none" xmlns="http://www.w3.org/2000/svg">
<path d="M23.25 19.2636V10.5829C23.25 9.3527 22.7158 8.19145 21.8022 7.4362L15.0697 1.86964C13.2641 0.376787 10.7359 0.376787 8.9303 1.86964L2.19773 7.4362C1.28428 8.19145 0.75 9.3527 0.75 10.5829V19.2636C0.75 21.4653 2.42894 23.25 4.5 23.25H7C7.69035 23.25 8.25 22.6904 8.25 22V17.9348C8.25 15.7331 9.92887 13.9484 12 13.9484C14.0711 13.9484 15.75 15.7331 15.75 17.9348V22C15.75 22.6904 16.3096 23.25 17 23.25H19.5C21.5711 23.25 23.25 21.4653 23.25 19.2636Z" fill="#5F6368"/>
</svg>
