<svg width="319" height="212" viewBox="0 0 319 212" fill="none" xmlns="http://www.w3.org/2000/svg">
<g clip-path="url(#clip0_332_725)">
<path fill-rule="evenodd" clip-rule="evenodd" d="M60.9311 130.617C75.8037 136.557 90.3534 135.137 93.4271 127.442C96.4991 119.751 86.9317 108.698 72.0591 102.757C57.1865 96.8165 42.6368 98.2368 39.5631 105.932C36.4911 113.623 46.0585 124.676 60.9311 130.617ZM81.8127 119.617C81.6997 119.302 81.2026 118.969 80.3172 118.615L78.9802 118.081L76.5533 121.879L77.3204 122.186C77.8596 122.401 78.3351 122.534 78.7557 122.588C79.1228 122.636 79.4385 122.622 79.7026 122.546C79.9607 122.473 80.213 122.324 80.4641 122.103C80.7452 121.857 81.026 121.523 81.2977 121.098C81.5525 120.701 81.7156 120.357 81.7932 120.061C81.8445 119.869 81.8525 119.721 81.8127 119.617ZM67.8174 104.622L70.8025 105.814C71.2846 106.007 71.5183 106.567 71.3217 107.059C71.2914 107.135 71.2522 107.208 71.2061 107.272L69.6574 109.699L71.2529 110.336C72.1603 110.698 72.9022 111.093 73.4848 111.518C74.1286 111.993 74.5866 112.513 74.8554 113.088C75.0886 113.585 75.18 114.12 75.1341 114.693L76.1011 113.175C76.3333 112.76 76.8373 112.567 77.28 112.743L83.066 115.055C84.0303 115.44 84.8271 115.914 85.4544 116.481C86.1159 117.077 86.5825 117.766 86.8499 118.548C87.1181 119.34 87.1681 120.169 86.9937 121.038C86.8283 121.859 86.4713 122.702 85.9145 123.575C85.6881 123.925 85.4371 124.261 85.1635 124.577C84.8916 124.888 84.6006 125.172 84.2904 125.426C83.9741 125.684 83.6412 125.919 83.2971 126.119C82.9468 126.322 82.5739 126.505 82.1835 126.655C81.705 126.848 81.2286 126.984 80.7543 127.064C80.2633 127.148 79.7806 127.174 79.2982 127.147C78.8308 127.121 78.3163 127.035 77.7635 126.892C77.2151 126.751 76.6441 126.564 76.0567 126.329L74.2026 125.589L72.4374 128.328C72.2053 128.744 71.7013 128.937 71.2585 128.76L68.2516 127.559C68.199 127.538 68.1438 127.511 68.0922 127.475C67.6563 127.192 67.5309 126.602 67.8134 126.15L69.4154 123.64C69.3381 123.63 69.26 123.609 69.1855 123.58L66.1522 122.368C65.67 122.176 65.4364 121.615 65.6329 121.123C65.6633 121.047 65.7025 120.975 65.7486 120.91L69.3912 115.201C69.5529 114.949 69.6544 114.745 69.6976 114.586C69.7111 114.54 69.7372 114.576 69.7312 114.553L69.621 114.473C69.4635 114.358 69.227 114.237 68.9114 114.111L67.2457 113.446L62.9201 120.242C62.6697 120.64 62.1835 120.788 61.7715 120.624L58.7864 119.431C58.3043 119.239 58.0706 118.678 58.2672 118.186C58.2976 118.11 58.3367 118.038 58.3828 117.973L58.8748 117.199L58.6933 117.272C58.2147 117.465 57.7383 117.601 57.2641 117.682C56.7731 117.766 56.2904 117.791 55.808 117.764C55.3406 117.738 54.8261 117.652 54.2733 117.509C53.7248 117.368 53.1539 117.181 52.5665 116.947L50.708 116.204L48.9559 118.949C48.7238 119.365 48.2198 119.558 47.7771 119.381L44.7701 118.18C44.7175 118.159 44.6623 118.132 44.6107 118.096C44.1748 117.813 44.0495 117.223 44.3319 116.77L52.6153 103.794C52.8474 103.379 53.3514 103.186 53.7941 103.363L59.5801 105.674C60.5445 106.059 61.3412 106.533 61.9686 107.1C62.6345 107.698 63.0967 108.386 63.3641 109.167C63.4434 109.401 63.5042 109.643 63.5483 109.889L66.667 105.008C66.9175 104.61 67.4054 104.457 67.8174 104.622ZM58.3357 110.24C58.2226 109.925 57.7255 109.592 56.8401 109.238L55.4988 108.702L53.0719 112.5L53.8389 112.807C54.3781 113.022 54.8536 113.155 55.2743 113.209C55.6414 113.257 55.957 113.243 56.2212 113.167C56.4792 113.094 56.7315 112.945 56.9826 112.724C57.2637 112.478 57.5445 112.144 57.8162 111.718C58.0711 111.322 58.2342 110.978 58.3117 110.682C58.363 110.489 58.371 110.342 58.3357 110.24Z" fill="#6884BA"/>
<path fill-rule="evenodd" clip-rule="evenodd" d="M80.6744 117.72C81.8185 118.177 82.4954 118.697 82.7008 119.277C82.9106 119.859 82.7034 120.632 82.0862 121.605C81.4442 122.614 80.7299 123.231 79.9523 123.46C79.1747 123.689 78.1745 123.559 76.9647 123.076L75.1368 122.346L78.6161 116.893L80.6762 117.716L80.6744 117.72ZM67.4599 105.516L70.4449 106.709L68.2329 110.173L70.8936 111.235C72.568 111.904 73.6011 112.664 73.999 113.513C74.3969 114.362 74.1994 115.404 73.4126 116.636L69.5436 122.696L66.5103 121.484L70.1893 115.722C70.6093 115.065 70.7498 114.56 70.6193 114.213C70.4862 113.859 70.0428 113.531 69.2757 113.225L66.8911 112.272L62.127 119.733L59.1419 118.541L67.4599 105.516ZM57.1974 108.343C58.3414 108.8 59.0183 109.319 59.2237 109.9C59.4335 110.481 59.2307 111.256 58.6091 112.227C57.9671 113.237 57.2529 113.854 56.4753 114.083C55.6977 114.312 54.6974 114.182 53.4876 113.699L51.6597 112.969L55.139 107.516L57.1991 108.339L57.1974 108.343ZM45.1274 117.285L48.1344 118.486L50.3464 115.023L52.9238 116.052C54.0591 116.505 55.0453 116.759 55.8756 116.806C56.7085 116.858 57.5392 116.713 58.3685 116.38C59.062 116.107 59.6769 115.751 60.2169 115.302C60.7551 114.859 61.2306 114.317 61.6373 113.681C62.6238 112.14 62.9028 110.741 62.4785 109.488C62.0525 108.238 60.9689 107.261 59.2288 106.566L53.4428 104.255L45.1274 117.285ZM68.6045 126.663L71.6114 127.864L73.8235 124.4L76.4009 125.429C77.5361 125.883 78.5224 126.137 79.3527 126.183C80.1856 126.236 81.0163 126.09 81.8456 125.757C82.5391 125.484 83.154 125.128 83.694 124.68C84.2321 124.236 84.7077 123.694 85.1144 123.058C86.1009 121.517 86.3799 120.119 85.9556 118.865C85.5295 117.616 84.446 116.638 82.7058 115.943L76.9199 113.632L68.6045 126.663Z" fill="black"/>
</g>
<g clip-path="url(#clip1_332_725)">
<path d="M120.661 186.601L112.583 180.85C111.618 180.145 110.91 179.039 110.714 177.88C110.624 177.342 110.785 176.449 110.934 175.929L115.078 161.554L120.661 186.601Z" fill="#01579B"/>
<path d="M140.307 158.678L132.229 152.927C131.523 152.421 130.144 151.909 129.079 152.088C128.164 152.242 127.297 152.577 126.776 153.023L115.084 161.553L140.307 158.678Z" fill="#40C4FF"/>
<path d="M130.294 193.46L147.053 190.64L145.845 183.459L132.671 181.57L121.904 187.487L130.294 193.46Z" fill="#40C4FF"/>
<path d="M118.703 183.102C119.062 185.236 119.418 185.714 120.659 186.602L121.902 187.488L145.845 183.459L131.904 172.128L115.078 161.554L118.703 183.102Z" fill="#29B6F6"/>
<path d="M136.36 157.973L115.078 161.554L145.844 183.455L153.026 182.247L150.251 165.756L140.306 158.675C138.908 157.678 137.825 157.727 136.36 157.973Z" fill="#01579B"/>
<path opacity="0.2" d="M120.973 186.821C119.73 185.933 119.288 184.925 118.974 183.056L115.393 161.775L115.083 161.553L118.709 183.101C119.024 184.97 119.111 185.488 120.973 186.821L121.904 187.484L120.973 186.821Z" fill="white"/>
<path opacity="0.2" d="M149.942 165.536L152.717 182.027L145.535 183.235L145.845 183.459L153.026 182.25L150.251 165.756L149.942 165.536Z" fill="#263238"/>
<path opacity="0.2" d="M140.307 158.678C138.767 157.58 137.686 157.75 136.096 158.018L115.083 161.553L115.393 161.773L136.14 158.282C136.934 158.149 138.915 157.678 140.308 158.676L140.307 158.678Z" fill="white"/>
<path opacity="0.2" d="M149.942 165.536L140.307 158.678L132.229 152.927C131.523 152.421 130.144 151.909 129.079 152.088C128.164 152.242 127.297 152.577 126.776 153.023L115.084 161.553L110.936 175.928C110.789 176.452 110.624 177.344 110.715 177.88C110.91 179.041 111.621 180.141 112.58 180.848L120.021 186.104C120.226 186.282 120.439 186.448 120.662 186.602L120.971 186.822L121.901 187.485L129.979 193.236L130.288 193.456L147.043 190.637L145.835 183.457L153.017 182.248L150.242 165.757L149.942 165.536Z" fill="url(#paint0_radial_332_725)"/>
</g>
<g clip-path="url(#clip2_332_725)">
<path d="M182.874 79.712C182.717 79.6635 181.317 79.2918 179.029 80.2327C178.437 80.4761 177.848 80.7869 177.297 81.1306C175.623 78.29 172.516 77.8597 172.384 77.8248L171.625 77.7202L171.465 78.4536C171.289 79.4243 171.269 80.4483 171.419 81.4227C171.709 83.3105 172.63 84.8218 174.067 85.8457C173.265 86.8675 171.625 87.7034 171.277 87.8708L143.256 99.3901C142.526 99.6905 142.177 100.526 142.477 101.256C143.445 103.719 144.862 105.994 146.66 107.954C148.663 110.08 150.875 111.365 153.2 111.744C155.818 112.165 159.532 111.492 163.379 109.911C165.113 109.198 166.786 108.324 168.374 107.303C170.585 105.888 172.532 104.116 174.147 102.048C175.471 100.326 176.502 98.4051 177.209 96.3625C178.408 92.9396 178.579 89.5954 178.523 86.7128C178.662 86.6558 178.78 86.6074 178.918 86.5505C181.345 85.5527 182.447 83.9706 182.933 82.7996C183.277 82.0595 183.428 81.2567 183.434 80.4246L183.4 79.8397L182.874 79.712ZM166.391 88.9325L170.141 87.391C170.317 87.3184 170.42 87.1145 170.339 86.9171L168.96 83.5628C168.887 83.3863 168.683 83.2839 168.486 83.3651L164.736 84.9066C164.559 84.9792 164.457 85.1831 164.538 85.3804L165.917 88.7348C166.019 88.9236 166.214 89.0051 166.391 88.9325ZM157.214 81.4757L160.963 79.9342C161.14 79.8616 161.242 79.6576 161.161 79.4603L159.782 76.106C159.71 75.9294 159.485 75.8357 159.308 75.9083L155.559 77.4498C155.382 77.5224 155.28 77.7263 155.361 77.9236L156.74 81.278C156.812 81.4545 157.034 81.5497 157.214 81.4757ZM159.192 86.2874L162.942 84.7459C163.118 84.6733 163.212 84.4486 163.139 84.272L161.76 80.9177C161.688 80.7411 161.463 80.6474 161.287 80.72L157.537 82.2615C157.36 82.3341 157.258 82.538 157.339 82.7353L158.718 86.0897C158.792 86.2697 159.012 86.3614 159.192 86.2874ZM154.002 88.421L157.752 86.8795C157.928 86.8069 158.022 86.5822 157.949 86.4057L156.57 83.0513C156.498 82.8748 156.294 82.7725 156.097 82.8536L152.347 84.3951C152.17 84.4677 152.068 84.6716 152.149 84.869L153.528 88.2233C153.602 88.4033 153.805 88.5022 154.002 88.421ZM148.732 90.5874L152.482 89.0459C152.658 88.9733 152.752 88.7486 152.68 88.572L151.301 85.2177C151.228 85.0411 151.024 84.9388 150.827 85.02L147.077 86.5615C146.901 86.6341 146.798 86.838 146.879 87.0353L148.258 90.3897C148.353 90.5611 148.556 90.66 148.732 90.5874ZM161.163 91.0818L164.913 89.5403C165.089 89.4677 165.192 89.2638 165.11 89.0664L163.731 85.7121C163.659 85.5355 163.455 85.4332 163.258 85.5144L159.508 87.0559C159.331 87.1285 159.229 87.3324 159.31 87.5297L160.689 90.8841C160.77 91.0814 160.983 91.1558 161.163 91.0818ZM155.973 93.2154L159.723 91.6739C159.899 91.6013 160.001 91.3974 159.92 91.2001L158.541 87.8457C158.469 87.6692 158.265 87.5669 158.067 87.648L154.318 89.1895C154.141 89.2621 154.039 89.466 154.12 89.6634L155.499 93.0177C155.58 93.215 155.775 93.2966 155.973 93.2154ZM150.703 95.3818L154.453 93.8403C154.629 93.7677 154.732 93.5638 154.651 93.3664L153.272 90.0121C153.199 89.8355 152.995 89.7332 152.798 89.8144L149.048 91.3559C148.872 91.4285 148.769 91.6324 148.85 91.8297L150.229 95.1841C150.331 95.3729 150.527 95.4544 150.703 95.3818ZM145.534 97.5069L149.284 95.9654C149.46 95.8928 149.563 95.6888 149.481 95.4915L148.102 92.1372C148.03 91.9606 147.826 91.8583 147.629 91.9395L143.879 93.481C143.702 93.5536 143.6 93.7575 143.681 93.9548L145.06 97.3092C145.162 97.4979 145.357 97.5795 145.534 97.5069Z" fill="#0091E2"/>
</g>
<g clip-path="url(#clip3_332_725)">
<path d="M200.33 136.86C203.57 138.602 207.615 137.388 209.359 134.146L212.517 128.274L206.645 125.117C203.406 123.375 199.36 124.588 197.616 127.831C195.873 131.073 197.091 135.117 200.33 136.86Z" fill="#0ACF83"/>
<path d="M203.931 116.088C205.674 112.848 209.721 111.632 212.961 113.374L218.832 116.532L212.517 128.274L206.645 125.117C203.406 123.375 202.188 119.33 203.931 116.088Z" fill="#A259FF"/>
<path d="M210.247 104.345C211.989 101.105 216.036 99.8888 219.276 101.631L225.147 104.789L218.832 116.532L212.961 113.374C209.721 111.632 208.503 107.587 210.247 104.345Z" fill="#F24E1E"/>
<path d="M225.147 104.789L231.019 107.946C234.258 109.688 235.475 113.736 233.732 116.975C231.989 120.218 227.946 121.433 224.703 119.689L218.832 116.532L225.147 104.789Z" fill="#FF7262"/>
<path d="M227.417 128.718C225.674 131.961 221.631 133.176 218.388 131.432C215.146 129.688 213.931 125.645 215.674 122.403C217.417 119.163 221.461 117.945 224.703 119.689C227.946 121.433 229.16 125.479 227.417 128.718Z" fill="#1ABCFE"/>
</g>
<g clip-path="url(#clip4_332_725)">
<path d="M116.842 28.1505L84.3704 32.3417L85.6177 42.3983L128.14 36.9098L116.842 28.1505Z" fill="#47C5FB"/>
<path d="M103.601 44.9661L86.2144 47.2102L87.4005 57.3888L97.4322 56.094L115.025 53.8242L103.601 44.9661Z" fill="#47C5FB"/>
<path d="M87.4006 57.3888L88.3484 65.0301L99.5834 73.741L97.4323 56.0939L87.4006 57.3888Z" fill="#00569E"/>
<path d="M86.1022 47.2236L96.1524 45.9264L97.4324 56.0939L87.4006 57.3888L86.1022 47.2236Z" fill="#00B5F8"/>
<path d="M87.4006 57.3887L93.3096 59.4631L96.5838 56.2034L87.4006 57.3887Z" fill="url(#paint1_linear_332_725)" fill-opacity="0.8"/>
</g>
<g clip-path="url(#clip5_332_725)">
<path fill-rule="evenodd" clip-rule="evenodd" d="M39.342 49.7178L27.1155 57.1792L12.7929 57.3519L0 24.3959L32.676 15L39.342 49.7178Z" fill="#2062AF"/>
<path fill-rule="evenodd" clip-rule="evenodd" d="M17.1257 22.4387L26.2794 54.2726L26.3119 54.2722L36.2063 48.234L30.3779 18.6281L17.1257 22.4387Z" fill="#3C9CD7"/>
<path fill-rule="evenodd" clip-rule="evenodd" d="M19.5469 30.9027L11.2059 37.6692L12.6696 41.573L20.7041 34.927L29.2506 27.8576L28.4808 23.655L19.5469 30.9027Z" fill="white"/>
<mask id="mask0_332_725" style="mask-type:luminance" maskUnits="userSpaceOnUse" x="10" y="30" width="12" height="12">
<path fill-rule="evenodd" clip-rule="evenodd" d="M10.0244 33.6226L19.5585 30.8811L21.8769 38.9437L12.3428 41.6852L10.0244 33.6226Z" fill="url(#paint2_linear_332_725)"/>
</mask>
<g mask="url(#mask0_332_725)">
<path fill-rule="evenodd" clip-rule="evenodd" d="M11.206 37.6691L12.6697 41.573L20.704 34.927L19.5468 30.9027L11.206 37.6691Z" fill="url(#paint3_linear_332_725)"/>
</g>
<mask id="mask1_332_725" style="mask-type:luminance" maskUnits="userSpaceOnUse" x="18" y="23" width="13" height="12">
<path fill-rule="evenodd" clip-rule="evenodd" d="M18.283 26.5693L28.4926 23.6335L30.902 32.013L20.6924 34.9487L18.283 26.5693Z" fill="url(#paint4_linear_332_725)"/>
</mask>
<g mask="url(#mask1_332_725)">
<path fill-rule="evenodd" clip-rule="evenodd" d="M28.481 23.6551L19.547 30.9027L20.7042 34.9271L29.2507 27.8576L28.481 23.6551Z" fill="url(#paint5_linear_332_725)"/>
</g>
<path fill-rule="evenodd" clip-rule="evenodd" d="M11.2205 37.665L12.6842 41.5688L26.792 37.5617L28.0081 42.9783L23.7531 45.6432L18.9646 45.7774L17.7438 42.5494L13.6012 43.7406L15.9767 49.967L25.0786 50.0837L32.6961 45.209L30.1332 32.2267L11.2205 37.665Z" fill="url(#paint6_linear_332_725)"/>
<path fill-rule="evenodd" clip-rule="evenodd" d="M20.707 34.9372L11.2061 37.6691L12.6697 41.573L21.8642 38.9615L20.707 34.9372ZM23.7793 45.6218L23.738 45.6476L18.9502 45.7816L17.7294 42.5535L13.5869 43.7447L15.9623 49.9712L25.0636 50.0881L23.7793 45.6218Z" fill="black" fill-opacity="0.05098"/>
<path fill-rule="evenodd" clip-rule="evenodd" d="M7.94775 29.5594L28.4809 23.6552L29.2506 27.8578L9.61797 33.5031L7.94775 29.5594Z" fill="url(#paint7_linear_332_725)"/>
<path fill-rule="evenodd" clip-rule="evenodd" d="M18.3044 26.5814L7.94775 29.5594L9.61797 33.5031L19.4793 30.6675L18.3044 26.5814Z" fill="black" fill-opacity="0.05098"/>
</g>
<g clip-path="url(#clip6_332_725)">
<path d="M43.4454 171.366L33.5377 149.079C32.9671 147.795 31.4759 147.243 30.207 147.846L25.6324 150.02L28.2415 155.891C29.3462 155.914 30.3817 156.555 30.8655 157.643C31.3512 158.736 31.142 159.978 30.4298 160.859L32.9448 166.518C34.0558 166.534 35.1033 167.178 35.5889 168.271C36.2684 169.8 35.595 171.619 34.0849 172.335C32.5737 173.053 30.7997 172.396 30.1202 170.867C29.6087 169.716 29.8651 168.402 30.6671 167.515L28.3221 162.238L24.5445 172.445C24.7627 172.678 24.9449 172.954 25.0845 173.263C25.7641 174.792 25.0906 176.611 23.5794 177.329C22.0682 178.047 20.2942 177.391 19.6177 175.863C18.9382 174.334 19.6116 172.515 21.1228 171.796C21.4965 171.619 21.8859 171.527 22.2712 171.51L26.0838 161.209C25.8024 160.945 25.5667 160.622 25.3987 160.244C24.8824 159.087 25.1451 157.765 25.9572 156.878L23.3831 151.087L8.27835 158.267C7.00945 158.87 6.44333 160.4 7.0139 161.683L16.9205 183.973C17.4911 185.257 18.9823 185.809 20.2512 185.206L42.1787 174.789C43.4487 174.183 44.0148 172.653 43.4454 171.366Z" fill="#F05133"/>
</g>
<g clip-path="url(#clip7_332_725)">
<path fill-rule="evenodd" clip-rule="evenodd" d="M234.478 169.387C224.344 172.102 218.385 182.737 221.172 193.139C223.402 201.462 230.552 207.111 238.511 207.648C239.476 207.577 239.657 206.903 239.523 206.405C239.403 205.956 238.987 204.477 238.558 202.906C233.758 205.414 231.78 202.34 231.78 202.34C230.362 200.386 229.004 200.129 229.004 200.129C227.025 199.405 228.824 198.951 228.824 198.951C230.702 198.589 232.156 200.137 232.156 200.137C234.566 202.578 236.999 201.032 237.917 200.271C237.756 199.01 238.008 198.051 238.407 197.44C234.203 198.057 229.485 197.59 227.551 190.372C227 188.316 227.268 186.443 228.087 184.81C227.769 184.386 226.627 182.64 226.929 179.779C226.929 179.779 228.334 178.859 232.495 180.357C233.846 179.548 235.359 178.918 236.916 178.493C238.478 178.082 240.106 177.87 241.683 177.895C244.533 174.52 246.209 174.613 246.209 174.613C247.902 176.94 247.789 179.024 247.725 179.549C249.255 180.551 250.417 182.042 250.968 184.097C252.906 191.332 249.038 194.073 245.078 195.634C245.892 196.042 246.788 197.031 247.258 198.787C247.933 201.306 248.456 203.341 248.622 203.961C248.756 204.462 249.244 204.96 250.125 204.527C256.746 200.081 260.105 191.615 257.877 183.298C255.09 172.897 244.613 166.664 234.477 169.38L234.478 169.387L234.478 169.387Z" fill="#1F1F1F"/>
</g>
<g clip-path="url(#clip8_332_725)">
<path fill-rule="evenodd" clip-rule="evenodd" d="M213 0L209.903 35.0962L195.98 39L182.094 35.1025L179 0H213Z" fill="#E44D26"/>
<path fill-rule="evenodd" clip-rule="evenodd" d="M195.999 36.0166L207.251 32.8618L209.897 2.86914H195.999V36.0166Z" fill="#F16529"/>
<path fill-rule="evenodd" clip-rule="evenodd" d="M189.98 11.4797H196.002V7.17603H185.326L185.427 8.3313L186.472 20.1951H195.995V15.8882H190.369L189.98 11.4797ZM190.937 22.3469H186.666L187.262 29.1072L195.983 31.5542L196.002 31.5479V27.0696L195.983 27.0759L191.241 25.781L190.937 22.3469Z" fill="#EBEBEB"/>
<path fill-rule="evenodd" clip-rule="evenodd" d="M195.986 20.1951H201.226L200.734 25.7778L195.986 27.0728V31.551L204.713 29.104L204.775 28.3772L205.776 17.0435L205.88 15.8882H195.986V20.1951ZM195.986 11.4702V11.4797H206.266L206.351 10.5117L206.545 8.32812L206.646 7.17285H195.986V11.4702Z" fill="white"/>
</g>
<g clip-path="url(#clip9_332_725)">
<path d="M304.091 124.08C298.449 120.086 290.538 121.156 286.458 126.463L279.292 135.79C278.317 137.038 277.614 138.477 277.227 140.015C276.84 141.553 276.778 143.156 277.044 144.72C277.165 145.425 277.347 146.118 277.589 146.791C278.256 148.618 279.353 150.257 280.787 151.568C280.429 153.071 280.378 154.631 280.637 156.155C280.914 157.749 281.506 159.273 282.377 160.636C283.249 162 284.383 163.176 285.713 164.095C291.356 168.089 299.283 167.013 303.346 161.711L310.503 152.389C311.476 151.14 312.178 149.699 312.562 148.161C312.947 146.623 313.006 145.02 312.736 143.456C312.617 142.752 312.435 142.06 312.191 141.388C311.53 139.564 310.439 137.925 309.012 136.612C309.37 135.111 309.422 133.552 309.164 132.029C309.04 131.325 308.857 130.634 308.616 129.962C307.756 127.58 306.175 125.525 304.094 124.086L304.091 124.08Z" fill="#FF3E00"/>
<path d="M297.667 160.346C297.115 160.724 296.518 161.03 295.89 161.257C294.695 161.689 293.412 161.824 292.153 161.65C290.893 161.476 289.693 160.998 288.656 160.258C287.405 159.392 286.453 158.156 285.937 156.723C285.791 156.32 285.681 155.905 285.606 155.483C285.555 155.167 285.525 154.849 285.516 154.529L285.498 153.93L286.105 154.121C287.502 154.535 288.959 154.708 290.413 154.633L290.796 154.613L290.888 154.971C290.909 155.03 290.932 155.092 290.953 155.151C291.109 155.584 291.396 155.959 291.774 156.221C292.085 156.448 292.447 156.596 292.827 156.652C293.208 156.708 293.596 156.669 293.958 156.54C294.147 156.473 294.327 156.38 294.492 156.266C294.675 156.139 294.838 155.984 294.974 155.807L302.121 146.456C302.336 146.177 302.477 145.848 302.531 145.5C302.585 145.152 302.549 144.795 302.428 144.464C302.269 144.032 301.979 143.66 301.599 143.401C301.286 143.178 300.924 143.035 300.545 142.983C300.165 142.931 299.779 142.972 299.419 143.102C299.229 143.17 299.05 143.262 298.885 143.377C298.701 143.502 298.54 143.657 298.406 143.834L295.678 147.39C295.227 147.974 294.691 148.485 294.087 148.907C293.535 149.284 292.938 149.59 292.31 149.818C291.115 150.25 289.833 150.384 288.574 150.211C287.314 150.037 286.115 149.561 285.078 148.822C283.827 147.956 282.876 146.72 282.358 145.287C282.213 144.884 282.102 144.469 282.028 144.047C281.868 143.106 281.905 142.143 282.136 141.218C282.367 140.293 282.788 139.427 283.371 138.675L290.539 129.352C290.989 128.767 291.525 128.255 292.129 127.832C292.681 127.456 293.278 127.151 293.906 126.924C295.103 126.488 296.388 126.35 297.651 126.522C298.914 126.694 300.117 127.17 301.157 127.91C302.404 128.781 303.35 130.02 303.862 131.454C304.007 131.858 304.118 132.274 304.193 132.698C304.245 133.013 304.275 133.332 304.284 133.651L304.301 134.25L303.7 134.073C302.303 133.657 300.846 133.484 299.392 133.56L299.008 133.577L298.915 133.219C298.894 133.16 298.871 133.098 298.85 133.039C298.693 132.605 298.406 132.23 298.028 131.966C297.716 131.744 297.355 131.6 296.976 131.548C296.596 131.496 296.211 131.536 295.851 131.666C295.665 131.738 295.489 131.834 295.328 131.951C295.143 132.076 294.98 132.231 294.846 132.41L287.678 141.732C287.502 141.96 287.376 142.222 287.306 142.501C287.237 142.781 287.226 143.072 287.274 143.356C287.292 143.478 287.32 143.599 287.357 143.718C287.513 144.15 287.799 144.523 288.177 144.784C288.489 145.007 288.85 145.15 289.229 145.202C289.608 145.255 289.994 145.214 290.354 145.084C290.543 145.016 290.722 144.924 290.888 144.81C291.072 144.684 291.235 144.529 291.37 144.351L294.1 140.78C294.55 140.196 295.086 139.684 295.691 139.263C296.242 138.886 296.839 138.579 297.467 138.352C298.662 137.92 299.945 137.785 301.205 137.958C302.465 138.131 303.665 138.608 304.703 139.347C305.954 140.213 306.905 141.449 307.423 142.882C307.571 143.289 307.682 143.709 307.754 144.136C307.915 145.077 307.879 146.04 307.647 146.965C307.416 147.89 306.995 148.756 306.411 149.508L299.26 158.825C298.809 159.41 298.272 159.923 297.667 160.346Z" fill="white"/>
</g>
<g clip-path="url(#clip10_332_725)">
<path d="M292.158 44.1974L285.537 38.5016C284.771 37.8425 283.674 37.7559 282.804 38.2858L252.011 55.1399C251.183 55.5942 250.906 56.6728 251.414 57.4687L252.956 59.881C253.371 60.5319 254.185 60.7804 254.891 60.474L290.766 44.8766C291.971 44.3538 293.223 45.4572 292.891 46.7497L292.914 46.6597C293.147 45.7523 292.853 44.7945 292.158 44.1974Z" fill="#0065A9"/>
<path d="M284.55 73.8145L276.004 75.6144C275.015 75.823 274.013 75.3704 273.506 74.4868L254.646 44.8791C254.14 44.0836 254.417 43.0035 255.245 42.5525L257.759 41.1816C258.436 40.8114 259.269 40.9861 259.74 41.5945L283.659 72.5489C284.462 73.5873 286.09 73.2239 286.422 71.9314L286.399 72.0214C286.166 72.9288 285.448 73.6266 284.55 73.8145Z" fill="#007ACC"/>
<path d="M276.005 75.6148C275.015 75.823 274.014 75.3708 273.506 74.4853C274.131 75.5738 275.741 75.33 276.058 74.0979L284.853 39.855C285.17 38.6229 283.876 37.6332 282.804 38.2859C283.674 37.756 284.771 37.8426 285.538 38.5006L292.16 44.1901C292.855 44.7887 293.15 45.7453 292.917 46.6528L286.399 72.0277C286.166 72.9351 285.448 73.6314 284.549 73.8205L276.005 75.6148Z" fill="#1F9CF0"/>
<g opacity="0.25">
<path fill-rule="evenodd" clip-rule="evenodd" d="M274.144 75.2135C274.663 75.594 275.329 75.7491 275.988 75.6102L284.527 73.8148C285.425 73.6268 286.143 72.929 286.376 72.0216L292.894 46.6482C293.127 45.7407 292.833 44.7844 292.138 44.1859L285.521 38.4974C284.85 37.921 283.928 37.7832 283.124 38.1131C283.009 38.1607 282.897 38.2167 282.788 38.2831L264.793 48.1394L259.739 41.5925C259.269 40.9826 258.436 40.8097 257.759 41.1799L255.246 42.5509C254.417 43.0033 254.14 44.0819 254.646 44.8789L258.809 51.4171L252.011 55.1398C251.183 55.5941 250.906 56.6727 251.414 57.4686L252.955 59.8809C253.371 60.5318 254.184 60.7799 254.889 60.4735L262.472 57.1741L273.49 74.4826C273.66 74.7763 273.883 75.0239 274.144 75.2135ZM282.64 48.3982L269.431 54.1454L278.235 65.5484L282.64 48.3982Z" fill="url(#paint8_linear_332_725)"/>
</g>
</g>
<defs>
<radialGradient id="paint0_radial_332_725" cx="0" cy="0" r="1" gradientUnits="userSpaceOnUse" gradientTransform="translate(130.616 172.615) rotate(-9.55088) scale(20.4971)">
<stop stop-color="white" stop-opacity="0.1"/>
<stop offset="1" stop-color="white" stop-opacity="0"/>
</radialGradient>
<linearGradient id="paint1_linear_332_725" x1="90.2004" y1="53.9752" x2="92.8845" y2="58.1909" gradientUnits="userSpaceOnUse">
<stop/>
<stop offset="1" stop-opacity="0"/>
</linearGradient>
<linearGradient id="paint2_linear_332_725" x1="14.7963" y1="32.2687" x2="17.105" y2="40.2976" gradientUnits="userSpaceOnUse">
<stop stop-color="white" stop-opacity="0"/>
<stop offset="0.388" stop-color="white"/>
<stop offset="1" stop-color="white" stop-opacity="0.831"/>
</linearGradient>
<linearGradient id="paint3_linear_332_725" x1="14.7964" y1="32.2687" x2="17.1051" y2="40.2976" gradientUnits="userSpaceOnUse">
<stop stop-color="#D1D3D4"/>
<stop offset="0.388" stop-color="#D1D3D4"/>
<stop offset="1" stop-color="#D1D3D4"/>
</linearGradient>
<linearGradient id="paint4_linear_332_725" x1="23.3926" y1="25.1183" x2="25.7924" y2="33.464" gradientUnits="userSpaceOnUse">
<stop stop-color="white" stop-opacity="0"/>
<stop offset="0.388" stop-color="white"/>
<stop offset="1" stop-color="white" stop-opacity="0.831"/>
</linearGradient>
<linearGradient id="paint5_linear_332_725" x1="23.3927" y1="25.1182" x2="25.7925" y2="33.4639" gradientUnits="userSpaceOnUse">
<stop stop-color="#D1D3D4"/>
<stop offset="0.388" stop-color="#D1D3D4"/>
<stop offset="1" stop-color="#D1D3D4"/>
</linearGradient>
<linearGradient id="paint6_linear_332_725" x1="13.3988" y1="45.2404" x2="32.3115" y2="39.8021" gradientUnits="userSpaceOnUse">
<stop stop-color="#E8E7E5"/>
<stop offset="1" stop-color="white"/>
</linearGradient>
<linearGradient id="paint7_linear_332_725" x1="8.53519" y1="31.6024" x2="29.0683" y2="25.6982" gradientUnits="userSpaceOnUse">
<stop stop-color="#E8E7E5"/>
<stop offset="1" stop-color="white"/>
</linearGradient>
<linearGradient id="paint8_linear_332_725" x1="276.058" y1="35.8183" x2="266.405" y2="73.3974" gradientUnits="userSpaceOnUse">
<stop stop-color="white"/>
<stop offset="1" stop-color="white" stop-opacity="0"/>
</linearGradient>
<clipPath id="clip0_332_725">
<rect width="58" height="30" fill="white" transform="translate(45.1279 92) rotate(21.7731)"/>
</clipPath>
<clipPath id="clip1_332_725">
<rect width="41" height="41" fill="white" transform="translate(107 155.803) rotate(-9.55088)"/>
</clipPath>
<clipPath id="clip2_332_725">
<rect width="46" height="33" fill="white" transform="translate(136 85.4904) rotate(-22.3477)"/>
</clipPath>
<clipPath id="clip3_332_725">
<rect width="40" height="40" fill="white" transform="translate(206.946 95) rotate(28.271)"/>
</clipPath>
<clipPath id="clip4_332_725">
<rect width="37.4964" height="46.6621" fill="white" transform="translate(98.5913 14) rotate(37.7875)"/>
</clipPath>
<clipPath id="clip5_332_725">
<rect width="34" height="39" fill="white" transform="translate(0 24.3959) rotate(-16.0424)"/>
</clipPath>
<clipPath id="clip6_332_725">
<rect width="39" height="40" fill="white" transform="translate(13.8843 141) rotate(20.3102)"/>
</clipPath>
<clipPath id="clip7_332_725">
<rect width="38" height="39" fill="white" transform="translate(216 173.835) rotate(-15)"/>
</clipPath>
<clipPath id="clip8_332_725">
<rect width="34" height="39" fill="white" transform="translate(179)"/>
</clipPath>
<clipPath id="clip9_332_725">
<rect width="35.4009" height="42.6893" fill="white" transform="translate(271 130.027) rotate(-19.8604)"/>
</clipPath>
<clipPath id="clip10_332_725">
<rect width="38" height="39" fill="white" transform="translate(257.703 31) rotate(14.4054)"/>
</clipPath>
</defs>
</svg>
