<svg width="24" height="24" viewBox="0 0 24 24" fill="none" xmlns="http://www.w3.org/2000/svg">
<path d="M0 7.5C0 9.15685 1.34315 10.5 3 10.5H7.5C9.15685 10.5 10.5 9.15685 10.5 7.5V3C10.5 1.34315 9.15685 0 7.5 0H3C1.34315 0 0 1.34315 0 3V7.5ZM16.5 0C14.8431 0 13.5 1.34315 13.5 3V7.5C13.5 9.15685 14.8431 10.5 16.5 10.5H21C22.6569 10.5 24 9.15685 24 7.5V3C24 1.34315 22.6569 0 21 0H16.5ZM0 21C0 22.6569 1.34315 24 3 24H7.5C9.15685 24 10.5 22.6569 10.5 21V16.5C10.5 14.8431 9.15685 13.5 7.5 13.5H3C1.34315 13.5 0 14.8431 0 16.5V21ZM13.5 21C13.5 22.6569 14.8431 24 16.5 24H21C22.6569 24 24 22.6569 24 21V16.5C24 14.8431 22.6569 13.5 21 13.5H16.5C14.8431 13.5 13.5 14.8431 13.5 16.5V21Z" fill="#5F6368"/>
</svg>
